<?xml version="1.0" encoding="utf-8"?>
<!-- Svg Vector Icons : http://www.onlinewebfonts.com/icon -->
<!DOCTYPE svg PUBLIC "-//W3C//DTD SVG 1.1//EN" "http://www.w3.org/Graphics/SVG/1.1/DTD/svg11.dtd">
<svg version="1.1" xmlns="http://www.w3.org/2000/svg" xmlns:xlink="http://www.w3.org/1999/xlink" x="0px" y="0px" viewBox="0 0 1000 1000" enable-background="new 0 0 1000 1000" xml:space="preserve">
<metadata> Svg Vector Icons : http://www.onlinewebfonts.com/icon </metadata>
<g><g transform="translate(0.000000,511.000000) scale(0.100000,-0.100000)"><path d="M4053.6,4967.2c-233.2-114.6-517.7-523.6-652.1-940.5c-83-249-108.7-440.6-96.8-711.3c19.8-430.8,181.8-784.5,507.8-1112.5c160-158.1,472.2-385.3,640.2-464.3c75.1-35.6,77.1-35.6,164,9.9c333.9,177.8,675.8,616.5,772.6,990c47.4,187.7,43.5,484.1-9.9,677.7c-92.9,332-215.4,533.5-519.7,857.6c-229.2,243-341.8,385.3-432.7,545.4C4316.4,5014.6,4223.5,5052.2,4053.6,4967.2z M4272.9,4532.5c59.3-90.9,209.4-270.7,330-399.1c318.1-337.9,432.7-517.7,505.8-798.3c37.5-150.2,37.5-397.2,0-547.3c-61.3-233.2-243-496-464.3-669.8l-118.6-94.8l-85,49.4c-580.9,343.8-895.1,865.5-857.6,1426.6c21.7,308.2,124.5,616.5,298.4,887.2c73.1,114.6,241.1,308.2,268.7,308.2C4158.3,4694.5,4213.6,4621.4,4272.9,4532.5z"/><path d="M4093.1,4082c-79-282.6-102.8-490-81-719.2c23.7-235.1,59.3-367.5,148.2-543.4c55.3-110.7,276.6-436.7,296.4-436.7c2,0-15.8,69.2-43.5,154.1c-69.2,219.3-175.9,673.8-215.4,903c-17.8,108.7-37.5,335.9-45.4,503.9l-11.9,306.3L4093.1,4082z"/><path d="M6934.5,2860.8c-189.7-98.8-363.6-160.1-715.3-252.9c-403.1-104.7-622.4-203.5-855.6-389.2c-375.4-298.4-561.2-717.3-533.5-1199.4c11.9-229.2,85-527.6,173.9-705.4l65.2-134.4l286.5-5.9c458.4-9.9,748.9,51.4,1086.8,225.3c630.3,326,995.9,1027.5,962.3,1843.5c-11.9,296.4-61.3,482.1-158.1,586.9C7155.8,2928,7074.8,2935.9,6934.5,2860.8z M7098.5,2497.3c15.8-65.2,25.7-203.5,23.7-371.5c-4-330-59.3-571-199.6-849.7c-77.1-154.1-124.5-219.3-272.7-367.5c-152.2-154.1-205.5-193.6-365.6-272.7c-256.9-124.5-444.6-169.9-772.6-183.8l-266.8-11.8l-51.4,156.1c-205.5,620.4-39.5,1148,470.3,1487.9c177.8,118.6,282.5,160.1,699.5,268.7c179.8,47.4,407,120.5,503.9,164c98.8,43.5,183.8,79,191.7,81C7064.9,2600,7082.7,2552.6,7098.5,2497.3z"/><path d="M6691.5,1977.6c-199.6-314.2-600.7-756.8-995.9-1098.6c-110.6-96.8-197.6-175.9-191.7-175.9c35.6,0,351.7,130.4,456.4,187.7c266.7,150.2,509.8,411,652.1,699.5c67.2,138.3,195.6,511.8,181.8,527.6C6788.3,2121.8,6742.9,2058.6,6691.5,1977.6z"/><path d="M1753.6,2165.3c-90.9-79-122.5-197.6-118.6-434.7c3.9-324,102.7-677.7,282.6-1021.6C2261.4,53,2830.5-336.2,3518.1-381.7c185.7-11.9,515.7,2,626.4,25.7c57.3,13.8,61.2,9.9,169.9-201.5c61.3-118.6,112.6-221.3,112.6-229.2c0-5.9-148.2-11.8-330-11.8c-373.5,0-468.3-17.8-693.5-128.4c-274.7-136.3-503.9-424.8-586.9-741c-43.5-162-45.4-158.1,104.7-158.1h132.4l45.4,132.4c100.8,286.5,310.2,492,594.8,579c110.7,35.6,183.8,39.5,646.1,39.5h521.6l-33.6,85c-59.3,156.1-264.8,577-375.4,770.6c-94.8,166-116.6,193.6-152.1,183.8c-160.1-39.5-422.9-71.1-594.8-71.1C2996.5-107,2459,240.8,2135,908.6c-142.3,290.5-199.6,505.8-211.4,790.4c-11.8,223.3-9.9,233.2,25.7,221.3c191.7-59.3,432.7-88.9,907-110.7c644.2-29.6,901-116.6,1185.6-403.1C4322.3,1124,4470.5,752.5,4516,215l15.8-164l250.9-250.9c221.3-223.3,260.8-274.7,339.9-430.8c47.4-96.8,104.7-237.1,126.5-310.2l37.5-134.4h446.6c496,0,606.6-19.8,790.4-134.4c181.8-116.6,337.9-328,391.3-531.5l23.7-85h138.3h140.3l-13.8,75.1c-75.1,405.1-369.5,748.9-772.6,897.1c-100.8,37.5-167.9,45.4-519.7,55.3l-405.1,9.9l-59.3,138.3C5316.2-352,5148.3-124.8,4936.8,41.2c-77.1,59.3-144.2,108.7-154.1,108.7c-7.9,0-19.8,126.5-25.7,282.5c-13.8,330-57.3,523.6-169.9,754.8c-150.2,302.3-383.3,531.5-703.4,691.6c-326,162-660,225.2-1175.7,227.2c-237.1,0-418.9,23.7-636.3,79C1868.2,2238.4,1832.6,2234.5,1753.6,2165.3z"/><path d="M1818.8-1377.5c-128.4-85-134.4-108.7-229.2-907c-96.8-825.9-100.8-922.8-49.4-1023.5c21.7-37.5,347.8-385.3,727.1-774.6L2955-4786l914.9-2l912.9-2v45.4c0,23.7-31.6,318.1-69.2,656c-57.3,515.7-75.1,626.4-114.6,701.5c-39.5,75.1-144.2,166-677.8,578.9c-345.8,270.7-679.7,513.8-739,541.4c-251,120.5-486.1,37.5-539.4-193.7c-17.8-69.2,33.6-256.9,96.8-355.7c27.7-43.5,45.4-85,41.5-90.9c-11.9-9.9-207.5,69.2-247,100.8c-21.7,15.8-25.7,124.5-19.8,543.4c5.9,513.7,4,527.6-39.5,624.4c-94.9,207.5-243,304.3-460.4,306.3C1911.7-1332.1,1870.2-1342,1818.8-1377.5z M2164.6-1689.8l59.3-59.3l-5.9-551.3c-7.9-535.5-5.9-553.3,35.6-626.4c23.7-41.5,61.3-88.9,85-106.7c55.3-39.5,1100.6-478.2,1112.5-466.3c21.7,19.7-250.9,551.3-335.9,654c-49.4,61.2-114.6,158-142.3,213.4c-61.3,120.5-43.5,154.1,59.3,112.6c108.7-43.5,1290.3-964.3,1314-1023.5c9.9-27.7,37.5-219.3,61.3-426.8c21.7-205.5,45.4-409,51.4-448.5l11.9-75.1h-691.6h-691.6L2461-3855.4c-345.8,349.7-638.2,654-652.1,675.8c-21.7,33.6-11.9,164,61.3,790.4c57.3,478.2,96.8,754.8,112.6,764.7C2022.3-1598.9,2101.4-1626.5,2164.6-1689.8z"/><path d="M7776.3-1369.7c-102.7-47.4-193.6-146.2-250.9-268.7c-43.5-96.8-45.4-110.7-39.5-622.4c5.9-422.9,2-529.5-19.8-545.3c-33.6-27.7-235.1-110.7-243-102.8c-4,4,23.7,71.1,63.2,148.2c116.6,237.1,86.9,418.9-83,507.8c-108.7,55.3-250.9,51.4-387.3-13.8c-59.3-27.7-391.3-270.7-737.1-541.4c-533.5-413-638.2-503.9-677.7-578.9c-37.5-75.1-57.3-187.7-114.6-707.4c-37.5-339.9-69.2-636.3-69.2-656c0-39.5,17.8-39.5,914.9-37.6l912.9,2l689.6,705.4c377.4,387.3,705.4,735,725.2,772.6c51.4,98.8,47.4,185.8-51.4,1017.6c-94.8,804.2-100.8,829.9-227.2,912.9C8096.4-1318.3,7892.9-1314.3,7776.3-1369.7z M8017.3-1624.5c23.7-15.8,203.5-1466.2,187.7-1527.4c-4-17.8-296.4-328-650.1-687.6l-642.2-654h-691.6h-691.6l9.9,65.2c5.9,33.6,31.6,247,55.3,470.3c31.6,290.5,53.3,420.9,75.1,448.5c55.3,71.2,1260.7,986,1318,999.8c29.6,7.9,61.3,5.9,71.1-3.9c25.7-25.7-63.2-193.6-173.9-332c-85-102.8-357.7-634.3-335.9-654c11.8-11.9,1055.1,424.8,1110.5,464.3c23.7,17.8,65.2,67.2,88.9,110.7c41.5,75.1,43.5,83,27.7,594.7c-15.8,582.9-7.9,628.3,114.6,689.6C7962-1604.8,7983.7-1602.8,8017.3-1624.5z"/></g></g>
</svg>